<?xml version="1.0" encoding="utf-8"?>
<!-- Generator: Adobe Illustrator 16.0.0, SVG Export Plug-In . SVG Version: 6.00 Build 0)  -->
<!DOCTYPE svg PUBLIC "-//W3C//DTD SVG 1.1//EN" "http://www.w3.org/Graphics/SVG/1.1/DTD/svg11.dtd">
<svg version="1.1" id="Layer_1" xmlns="http://www.w3.org/2000/svg" xmlns:xlink="http://www.w3.org/1999/xlink" x="0px" y="0px"
	 width="128px" height="128px" viewBox="0 0 128 128" enable-background="new 0 0 128 128" xml:space="preserve">
<g id="bg">
	<circle fill="#38A4DD" cx="64" cy="64.036" r="62.036"/>
	<g display="none">
		
			<rect x="16.285" y="40.503" transform="matrix(0.9897 -0.1429 0.1429 0.9897 -8.6492 8.1025)" display="inline" fill="#FFFFFF" width="71.616" height="47.547"/>
		
			<rect x="18.706" y="41.61" transform="matrix(0.9897 -0.1429 0.1429 0.9897 -8.5367 8.6167)" display="inline" fill="#38A4DD" width="74.051" height="44.282"/>
	</g>
	
		<rect x="32.15" y="20.566" transform="matrix(0.9765 0.2156 -0.2156 0.9765 11.1551 -13.6061)" display="none" fill="#FFFFFF" width="71.616" height="47.547"/>
	
		<rect x="34.6" y="22.268" transform="matrix(0.9765 0.2156 -0.2156 0.9765 11.1783 -13.6731)" display="none" fill="#38A4DD" width="67.345" height="44.283"/>
	
		<rect x="36.651" y="51.499" transform="matrix(0.9757 -0.2191 0.2191 0.9757 -14.7288 17.7002)" display="none" fill="#FFFFFF" width="71.616" height="47.547"/>
	
		<rect x="39.096" y="53.016" transform="matrix(0.9757 -0.219 0.219 0.9757 -14.6896 17.809)" display="none" fill="#38A4DD" width="67.762" height="44.282"/>
</g>
<path opacity="0.5" fill="#1E6B8F" d="M126.036,64c0-3.486-0.302-6.901-0.854-10.23l-17.47-23.915L19.566,94.246l19.353,26.492
	c7.671,3.396,16.152,5.298,25.082,5.298C98.262,126.036,126.036,98.262,126.036,64z"/>
<g>
	
		<rect x="15.691" y="42.384" transform="matrix(0.9897 -0.1429 0.1429 0.9897 -8.9242 8.0369)" fill="#FFFFFF" width="71.616" height="47.547"/>
	
		<rect x="18.112" y="43.491" transform="matrix(0.9897 -0.1429 0.1429 0.9897 -8.8115 8.5511)" fill="#38A4DD" width="74.052" height="44.283"/>
</g>
<rect x="32.15" y="21.531" transform="matrix(0.9765 0.2155 -0.2155 0.9765 11.3625 -13.5831)" fill="#FFFFFF" width="71.616" height="47.547"/>
<rect x="34.6" y="23.232" transform="matrix(0.9765 0.2156 -0.2156 0.9765 11.3857 -13.65)" fill="#38A4DD" width="67.344" height="44.283"/>
<rect x="36.651" y="52.464" transform="matrix(0.9757 -0.2191 0.2191 0.9757 -14.9401 17.7236)" fill="#FFFFFF" width="71.616" height="47.547"/>
<rect x="39.096" y="53.98" transform="matrix(0.9757 -0.219 0.219 0.9757 -14.9016 17.8337)" fill="#38A4DD" width="67.762" height="44.283"/>
</svg>
