<?xml version="1.0" encoding="utf-8"?>
<!-- Generator: Adobe Illustrator 16.0.0, SVG Export Plug-In . SVG Version: 6.00 Build 0)  -->
<!DOCTYPE svg PUBLIC "-//W3C//DTD SVG 1.1//EN" "http://www.w3.org/Graphics/SVG/1.1/DTD/svg11.dtd">
<svg version="1.1" id="Layer_1" xmlns="http://www.w3.org/2000/svg" xmlns:xlink="http://www.w3.org/1999/xlink" x="0px" y="0px"
	 width="96px" height="96px" viewBox="0 0 96 96" enable-background="new 0 0 96 96" xml:space="preserve">
<path fill="#BCBBBB" d="M68.355,46.539c0.086-0.616,0.146-1.24,0.146-1.879c0-7.408-6.005-13.413-13.413-13.413
	c-5.425,0-10.085,3.226-12.199,7.859c-1.337-0.429-2.76-0.666-4.24-0.666c-7.66,0-13.87,6.21-13.87,13.869
	c0,7.66,6.21,13.871,13.87,13.871c0.138,0,0.271-0.018,0.409-0.021c0.177,0.008,0.352,0.021,0.531,0.021h24.606
	c0.514,0,1.015-0.037,1.509-0.09c0.412,0.053,0.829,0.09,1.256,0.09c5.46,0,9.88-4.42,9.88-9.881
	C76.84,51.322,73.151,47.218,68.355,46.539z"/>
<path fill="#FFFFFF" d="M51.08,54.305c5.004-0.029,9.33,2.506,11.399,6.199l2.329-2.357c-3.149-4.062-8.072-6.676-13.609-6.643
	c-5.068,0.029-9.595,2.275-12.705,5.799l2.073,2.049C42.812,56.336,46.674,54.33,51.08,54.305z"/>
</svg>
